<svg xmlns="http://www.w3.org/2000/svg" width="300" height="150" viewBox="0 0 300 150"><rect width="100%" height="100%" fill="#DDDDDD"/><path fill="#999999" d="m63.68 69.06-2.6-.46q.3-2.08 1.16-3.65t2.15-2.62 2.96-1.58 3.59-.53q2 0 3.61.57t2.75 1.58 1.75 2.37.61 2.94q0 1.38-.31 2.43t-.89 1.83-1.44 1.32-1.94.9q2.6.82 3.88 2.5t1.28 4.22q0 2.16-.8 3.82t-2.16 2.79-3.15 1.71-3.79.58q-2.18 0-3.8-.5t-2.82-1.48-2.04-2.4-1.44-3.28l2.18-.9q.86-.36 1.61-.19t1.09.81q.36.7.79 1.38t1.03 1.21 1.41.86 1.93.33q1.26 0 2.2-.41t1.57-1.07.94-1.47.31-1.63q0-1.04-.22-1.89t-.92-1.45-2.01-.94-3.51-.34V72.9q1.82-.02 3.02-.34t1.91-.89.99-1.37.28-1.76q0-2.04-1.14-3.1t-3.04-1.06q-.88 0-1.62.25t-1.33.7-.99 1.05-.6 1.32q-.34.92-.89 1.22t-1.55.14M104.32 75q0 3.78-.81 6.57t-2.24 4.61-3.38 2.71-4.21.89-4.19-.89-3.35-2.71-2.22-4.61-.8-6.57q0-3.8.8-6.58t2.22-4.6 3.35-2.71 4.19-.89 4.21.89 3.38 2.71 2.24 4.6.81 6.58m-5.1 0q0-3.14-.46-5.2t-1.23-3.28-1.77-1.71-2.08-.49q-1.06 0-2.05.49t-1.75 1.71-1.21 3.28-.45 5.2.45 5.2 1.21 3.28 1.75 1.71 2.05.49q1.08 0 2.08-.49t1.77-1.71 1.23-3.28.46-5.2m28.3 0q0 3.78-.81 6.57t-2.24 4.61-3.38 2.71-4.21.89-4.19-.89-3.35-2.71-2.22-4.61-.8-6.57q0-3.8.8-6.58t2.22-4.6 3.35-2.71 4.19-.89 4.21.89 3.38 2.71 2.24 4.6.81 6.58m-5.1 0q0-3.14-.46-5.2t-1.23-3.28-1.77-1.71-2.08-.49q-1.06 0-2.05.49t-1.75 1.71-1.21 3.28-.45 5.2.45 5.2 1.21 3.28 1.75 1.71 2.05.49q1.08 0 2.08-.49t1.77-1.71 1.23-3.28.46-5.2m36.86 7.84-2.62 2.58-6.78-6.78-6.84 6.82-2.62-2.58 6.84-6.86-6.52-6.52 2.6-2.6 6.52 6.52 6.48-6.48 2.64 2.6-6.5 6.5zm27.38 2.92h5.2v3.7h-16v-3.7h5.86V68.9q0-1 .06-2.06l-4.16 3.48q-.36.28-.71.35t-.66.01-.55-.21-.36-.33L173.78 68l8.82-7.5h4.06zm16.84-20.74-1.02 6.02q.96-.2 1.84-.29t1.7-.09q2.28 0 4.02.68t2.92 1.88 1.78 2.81.6 3.47q0 2.3-.81 4.2t-2.25 3.25-3.41 2.09-4.29.74q-1.36 0-2.58-.28t-2.29-.75-1.98-1.08-1.63-1.29l1.52-2.1q.48-.68 1.26-.68.5 0 1.02.32t1.19.7 1.58.7 2.19.32q1.36 0 2.4-.44t1.73-1.23 1.04-1.88.35-2.37q0-2.36-1.37-3.69t-4.05-1.33q-2.06 0-4.22.76l-3.08-.88 2.4-14.04h14.28v2.1q0 1.06-.66 1.72t-2.24.66zM239.76 75q0 3.78-.81 6.57t-2.24 4.61-3.38 2.71-4.21.89-4.19-.89-3.35-2.71-2.22-4.61-.8-6.57q0-3.8.8-6.58t2.22-4.6 3.35-2.71 4.19-.89 4.21.89 3.38 2.71 2.24 4.6.81 6.58m-5.1 0q0-3.14-.46-5.2t-1.23-3.28-1.77-1.71-2.08-.49q-1.06 0-2.05.49t-1.75 1.71-1.21 3.28-.45 5.2.45 5.2 1.21 3.28 1.75 1.71 2.05.49q1.08 0 2.08-.49t1.77-1.71 1.23-3.28.46-5.2"/></svg>